<svg xmlns="http://www.w3.org/2000/svg" viewBox="0 0 1200 420" role="img" aria-labelledby="title desc">
  <title id="title">Singularity AI Lab research fusion banner</title>
  <desc id="desc">Abstract fusion of optimization contours, AI for science molecular structures, energy grid signals, and large language model token flows.</desc>
  <defs>
    <radialGradient id="core" cx="50%" cy="50%" r="42%">
      <stop offset="0" stop-color="#e0faff"/>
      <stop offset="0.18" stop-color="#22d3ee"/>
      <stop offset="0.56" stop-color="#0e7490" stop-opacity="0.42"/>
      <stop offset="1" stop-color="#020617" stop-opacity="0"/>
    </radialGradient>
    <linearGradient id="cyan" x1="0" x2="1" y1="0" y2="0">
      <stop offset="0" stop-color="#67e8f9" stop-opacity="0"/>
      <stop offset="0.35" stop-color="#22d3ee"/>
      <stop offset="0.72" stop-color="#38bdf8"/>
      <stop offset="1" stop-color="#818cf8" stop-opacity="0"/>
    </linearGradient>
    <linearGradient id="gold" x1="0" x2="1" y1="0" y2="0">
      <stop offset="0" stop-color="#f8fafc" stop-opacity="0"/>
      <stop offset="0.48" stop-color="#fde68a"/>
      <stop offset="1" stop-color="#f59e0b" stop-opacity="0"/>
    </linearGradient>
    <filter id="glow" x="-50%" y="-50%" width="200%" height="200%">
      <feGaussianBlur stdDeviation="4" result="blur"/>
      <feMerge>
        <feMergeNode in="blur"/>
        <feMergeNode in="SourceGraphic"/>
      </feMerge>
    </filter>
    <pattern id="grid" width="32" height="32" patternUnits="userSpaceOnUse">
      <path d="M32 0H0v32" fill="none" stroke="#0e7490" stroke-opacity="0.12"/>
    </pattern>
  </defs>

  <rect width="1200" height="420" fill="#020617"/>
  <rect width="1200" height="420" fill="url(#grid)"/>
  <circle cx="600" cy="210" r="230" fill="url(#core)" opacity="0.95"/>

  <g fill="none" stroke-linecap="round" stroke-linejoin="round">
    <path d="M-80 254C80 132 185 104 306 175s178 145 294 36 210-128 342-42 211 68 338 5" stroke="url(#cyan)" stroke-width="3.2" filter="url(#glow)"/>
    <path d="M-40 320C95 247 204 236 327 272s200 91 310 9 182-124 288-70 176 130 319 76" stroke="#38bdf8" stroke-opacity="0.42" stroke-width="1.5"/>
    <path d="M28 94C130 74 206 88 277 156s124 135 238 92 142-153 263-137 172 106 258 81 128-100 222-96" stroke="#67e8f9" stroke-opacity="0.26" stroke-width="1.2"/>
    <path d="M62 345C154 280 209 220 301 225s112 90 196 80 134-98 213-76 102 114 181 92 116-97 226-72" stroke="url(#gold)" stroke-width="2" filter="url(#glow)"/>
  </g>

  <g transform="translate(70 42)" fill="none" stroke="#67e8f9" stroke-opacity="0.52">
    <path d="M0 250C58 210 82 155 104 94M16 277C89 238 126 176 151 96M40 302C128 260 182 190 214 83M73 325C180 281 241 192 272 67M118 342C236 293 298 200 325 58"/>
    <path d="M0 250C76 275 148 281 224 264M18 210C96 232 177 236 252 218M44 171C125 191 208 191 284 170M74 132C157 148 238 146 312 121M111 92C188 104 258 100 325 78"/>
  </g>

  <g transform="translate(360 92)" stroke="#60a5fa" stroke-width="2" fill="#020617" filter="url(#glow)">
    <circle cx="0" cy="42" r="6" fill="#38bdf8"/><circle cx="44" cy="10" r="5" fill="#93c5fd"/><circle cx="84" cy="48" r="6" fill="#38bdf8"/><circle cx="48" cy="90" r="5" fill="#bae6fd"/><circle cx="118" cy="100" r="6" fill="#38bdf8"/><circle cx="154" cy="58" r="5" fill="#93c5fd"/><circle cx="194" cy="94" r="6" fill="#38bdf8"/><circle cx="156" cy="140" r="5" fill="#bae6fd"/><circle cx="82" cy="140" r="6" fill="#38bdf8"/><circle cx="224" cy="150" r="5" fill="#93c5fd"/>
    <path d="M0 42 44 10 84 48 48 90 0 42M84 48 154 58 118 100 48 90M118 100 194 94 156 140 82 140 118 100M194 94 224 150 156 140" fill="none"/>
  </g>

  <g transform="translate(566 72)" fill="none" stroke="#a5f3fc" stroke-opacity="0.86" filter="url(#glow)">
    <circle cx="34" cy="138" r="58"/><circle cx="34" cy="138" r="31"/><circle cx="34" cy="138" r="8" fill="#e0faff"/>
    <path d="M34 24v228M-80 138h228M-46 58 114 218M114 58-46 218"/>
    <path d="M34 138C121 77 201 58 286 84M34 138C137 119 215 129 318 176M34 138C143 173 218 220 348 232" stroke="#22d3ee"/>
  </g>

  <g transform="translate(735 60)" stroke="#67e8f9" fill="#67e8f9" filter="url(#glow)">
    <g stroke-opacity="0.5" fill-opacity="0.85">
      <circle cx="0" cy="48" r="5"/><circle cx="55" cy="22" r="4"/><circle cx="102" cy="60" r="5"/><circle cx="151" cy="34" r="4"/><circle cx="196" cy="77" r="5"/>
      <circle cx="28" cy="128" r="5"/><circle cx="86" cy="111" r="4"/><circle cx="144" cy="146" r="5"/><circle cx="211" cy="126" r="4"/><circle cx="265" cy="158" r="5"/>
      <circle cx="9" cy="223" r="5"/><circle cx="76" cy="202" r="4"/><circle cx="137" cy="237" r="5"/><circle cx="202" cy="218" r="4"/><circle cx="281" cy="251" r="5"/>
    </g>
    <g fill="none" stroke-opacity="0.42">
      <path d="M0 48C55 22 102 60 151 34s67 9 196 43M28 128c58-17 116 18 183-2M9 223c67-21 128 14 193-5s78 33 79 33"/>
      <path d="M0 48c43 61 88 72 144 98s91 82 137 105M102 60c-16 60-26 102-26 142M196 77c-28 38-41 77-59 160"/>
    </g>
  </g>

  <g transform="translate(815 260)" fill="none" stroke="#22d3ee" stroke-width="2" stroke-linecap="round">
    <path d="M0 95h300" stroke-opacity="0.25"/>
    <path d="M8 95 48 40 88 95M48 40v55M32 62h32M148 95l42-68 42 68M190 27v68M171 54h38" filter="url(#glow)"/>
    <path d="M48 40C86 22 124 22 190 27M88 95C130 77 166 78 232 95" stroke="#a5f3fc" stroke-opacity="0.58"/>
    <path d="M250 95V52m26 43V36m27 59V66"/>
    <path d="M238 55c24-14 43-14 65 0M264 39c23-12 40-12 63 0M293 69c18-8 30-8 48 0" stroke-opacity="0.52"/>
  </g>

  <g opacity="0.35">
    <path d="M873 105c70 8 137 9 205-12v168c-70 21-137 20-205 12z" fill="none" stroke="#38bdf8"/>
    <path d="M898 128c50 4 100 2 151-9M898 158c50 4 100 2 151-9M898 188c50 4 100 2 151-9M898 218c50 4 100 2 151-9" stroke="#38bdf8" stroke-width="1"/>
    <path d="M934 116v153M982 112v151M1030 102v150" stroke="#38bdf8" stroke-width="1"/>
  </g>

  <g fill="#e0faff" opacity="0.92" filter="url(#glow)">
    <circle cx="600" cy="210" r="4"/><circle cx="552" cy="158" r="3"/><circle cx="650" cy="152" r="3"/><circle cx="682" cy="222" r="3"/><circle cx="526" cy="236" r="3"/>
  </g>
</svg>
